<?xml version="1.0" encoding="UTF-8" standalone="no"?>
<svg width="512" height="512" viewBox="0 0 512 512" fill="none" xmlns="http://www.w3.org/2000/svg">
  <!-- Background -->
  <rect width="512" height="512" fill="#000000"/>
  
  <!-- Gradient overlay -->
  <rect width="512" height="512" fill="url(#grad1)" opacity="0.8"/>
  
  <!-- Main circular frame -->
  <circle cx="256" cy="256" r="180" fill="url(#grad2)" stroke="white" stroke-width="6"/>
  
  <!-- VR Headset Icon -->
  <path d="M326 236H186C175.5 236 167 244.5 167 255V315C167 325.5 175.5 334 186 334H211.5L233 355.5C238.5 361 246.5 364 255 364C263.5 364 271.5 361 277 355.5L298.5 334H326C336.5 334 345 325.5 345 315V255C345 244.5 336.5 236 326 236Z" fill="white"/>
  
  <!-- VR Display Screens -->
  <rect x="186" y="246" width="60" height="78" rx="5" fill="#5e35b1"/>
  <rect x="266" y="246" width="60" height="78" rx="5" fill="#5e35b1"/>
  
  <!-- Strap -->
  <path d="M186 236C186 177 216 148 256 148C296 148 326 177 326 236" stroke="white" stroke-width="6" stroke-linecap="round"/>
  
  <!-- Arabic text symbol simplified -->
  <path d="M256 200C273 170 296 180 296 200C296 220 266 240 256 250C246 240 216 220 216 200C216 180 239 170 256 200Z" fill="white"/>
  
  <!-- Decorative elements -->
  <circle cx="256" cy="256" r="210" stroke="white" stroke-width="2" stroke-dasharray="10 5" opacity="0.6"/>
  <circle cx="256" cy="256" r="230" stroke="#5e35b1" stroke-width="4" stroke-dasharray="1 10" opacity="0.8"/>
  
  <!-- Glowing effect -->
  <circle cx="256" cy="256" r="150" fill="url(#glow)" opacity="0.3"/>
  
  <!-- Definitions -->
  <defs>
    <radialGradient id="grad1" cx="0.5" cy="0.5" r="0.5" gradientUnits="objectBoundingBox">
      <stop offset="0%" stop-color="#5e35b1" stop-opacity="0.5"/>
      <stop offset="100%" stop-color="#000000" stop-opacity="0"/>
    </radialGradient>
    
    <linearGradient id="grad2" x1="0" y1="0" x2="1" y2="1" gradientUnits="objectBoundingBox">
      <stop offset="0%" stop-color="#1a1a2e"/>
      <stop offset="100%" stop-color="#16213e"/>
    </linearGradient>
    
    <radialGradient id="glow" cx="0.5" cy="0.5" r="0.5" gradientUnits="objectBoundingBox">
      <stop offset="0%" stop-color="white" stop-opacity="1"/>
      <stop offset="100%" stop-color="#5e35b1" stop-opacity="0"/>
    </radialGradient>
  </defs>
</svg>